<?xml version="1.0" encoding="utf-8"?>
<?xml-stylesheet type="text/xsl" href="rss1.xsl"?>
<rss version="2.0" xmlns:atom="http://www.w3.org/2005/Atom" xmlns:content="http://purl.org/rss/1.0/modules/content/" xmlns:dc="http://purl.org/dc/elements/1.1/" xmlns:media="http://search.yahoo.com/mrss/">
<channel>
 <title>Getty</title>
 <link>http://www.gettyimg.com/</link>
 <atom:link href="http://www.gettyimg.com/" rel="self" type="application/rss+xml" />

 
                <item>
                <title><![CDATA[【Cinema Center】MOVIE - Barbie.Princess.Charm.School.2011.360p.STAN.WEB-DL.DDP5.1.H.264-Samuel]]></title>
                <link><![CDATA[https://sharemania.us/threads/barbie-princess-charm-school-2011-360p-stan-web-dl-ddp5-1-h-264-samuel.234398/]]></link>
                <description><![CDATA[<article>
<blockquote class="messageText SelectQuoteContainer ugc baseHtml">
<div style="text-align: center"><b><span style="font-size: 26px">Barbie: Princess Charm School</span></b><br>
<img src="https://i.imgur.com/Z934Ckh.jpg" class="bbCodeImage LbImage" alt="[​IMG]" data-url="https://i.imgur.com/Z934Ckh.jpg" style=""><br>
<b><a href="https://i.imgur.com/UjXtW8a.jpg" target="_blank" class="externalLink" rel="nofollow">Banner Background</a></b> | <b><a href="https://i.imgur.com/TGT573z.jpg" target="_blank" class="externalLink" rel="nofollow">Box Art</a></b> | <b><a href="https://i.imgur.com/uEtBOjd.jpg" target="_blank" class="externalLink" rel="nofollow">Cast Ensemble Image</a></b> | <b><a href="https://i.imgur.com/n1ZlrMO.jpg" target="_blank" class="externalLink" rel="nofollow">Cast in Character Image</a></b> | <b><a href="https://i.imgur.com/879tLRG.jpg" target="_blank" class="externalLink" rel="nofollow">Iconic Header Image</a></b> | <b><a href="https://i.imgur.com/E2FjUuY.png" target="_blank" class="externalLink" rel="nofollow">Logo</a></b> | <b><a href="https://i.imgur.com/yrO5A0C.jpg" target="_blank" class="externalLink" rel="nofollow">Poster</a></b><br>
<br>
G • 2011 • 84 mins • HD<br>
<br>
<div class="bbCodeBlock bbCodeQuote">
<aside>
<blockquote class="quoteContainer"><div class="quote"><b><span style="font-size: 15px"><span style="font-family: 'Arial'">Program Description</span></span></b><br>
Barbie stars as Blair, a kind-hearted girl who is chosen to attend Princess Charm School. In this magical place, she makes new friends and discovers that there's a princess in every girl!</div><div class="quoteExpand">Click to expand...</div></blockquote>
</aside>
</div>
<div class="bbCodeBlock bbCodeQuote">
<aside>
<blockquote class="quoteContainer"><div class="quote"><b><span style="font-size: 15px"><span style="font-family: 'Arial'">Program Details</span></span></b><br>
<b>Genres:</b> Family, Animation, Fantasy, Kids<br>
<b>Languages:</b> English</div><div class="quoteExpand">Click to expand...</div></blockquote>
</aside>
</div>
<div class="bbCodeBlock bbCodeQuote">
<aside>
<blockquote class="quoteContainer"><div class="quote"><b><span style="font-size: 15px"><span style="font-family: 'Arial'">Source</span></span></b><br>
<img src="https://i.imgur.com/8RZhFvg.png" class="bbCodeImage LbImage" alt="[​IMG]" data-url="https://i.imgur.com/8RZhFvg.png" style=""></div><div class="quoteExpand">Click to expand...</div></blockquote>
</aside>
</div>
<div class="bbCodeBlock bbCodeQuote">
<aside>
<blockquote class="quoteContainer"><div class="quote"><b><span style="font-size: 15px">Release Name</span></b><br>
Barbie.Princess.Charm.School.2011.360p.STAN.WEB-DL.DDP5.1.H.264-Samuel</div><div class="quoteExpand">Click to expand...</div></blockquote>
</aside>
</div>
<div class="ToggleTriggerAnchor bbCodeSpoilerContainer">
<button type="button" class="button bbCodeSpoilerButton ToggleTrigger Tooltip JsOnly" data-target="> .SpoilerTarget"><span>Spoiler: <span class="SpoilerTitle">Media Information</span></span></button>
<div class="SpoilerTarget bbCodeSpoilerText">General<br>
Complete name : Barbie.Princess.Charm.School.2011.360p.STAN.WEB-DL.DDP5.1.H.264-Samuel.mkv<br>
Format : Matroska<br>
Format version : Version 4<br>
File size : 1.18 GiB<br>
Duration : 1 h 23 min<br>
Overall bit rate : 2 018 kb/s<br>
Frame rate : 23.976 FPS<br>
Encoded date : 2023-12-21 20:48:25 UTC<br>
Writing application : mkvmerge v81.0 ('Milliontown') 64-bit<br>
Writing library : libebml v1.4.4 + libmatroska v1.7.1<br>
<br>
Video<br>
ID : 1<br>
Format : AVC<br>
Format/Info : Advanced Video Codec<br>
Format profile : High@L3<br>
Format settings : 1 Ref Frames<br>
Format settings, CABAC : No<br>
Format settings, Reference frames : 1 frame<br>
Codec ID : V_MPEG4/ISO/AVC<br>
Duration : 1 h 23 min<br>
Bit rate : 1 114 kb/s<br>
Width : 640 pixels<br>
Height : 360 pixels<br>
Display aspect ratio : 16:9<br>
Frame rate mode : Constant<br>
Frame rate : 23.976 (24000/1001) FPS<br>
Color space : YUV<br>
Chroma subsampling : 4:2:0<br>
Bit depth : 8 bits<br>
Scan type : Progressive<br>
Bits/(Pixel*Frame) : 0.202<br>
Stream size : 665 MiB (55%)<br>
Default : Yes<br>
Forced : No<br>
Color range : Limited<br>
Color primaries : BT.709<br>
Transfer characteristics : BT.709<br>
Matrix coefficients : BT.709<br>
<br>
Audio #1<br>
ID : 2<br>
Format : E-AC-3<br>
Format/Info : Enhanced AC-3<br>
Commercial name : Dolby Digital Plus<br>
Codec ID : A_EAC3<br>
Duration : 1 h 23 min<br>
Bit rate mode : Constant<br>
Bit rate : 448 kb/s<br>
Channel(s) : 6 channels<br>
Channel layout : L R C LFE Ls Rs<br>
Sampling rate : 48.0 kHz<br>
Frame rate : 31.250 FPS (1536 SPF)<br>
Compression mode : Lossy<br>
Stream size : 268 MiB (22%)<br>
Language : English<br>
Service kind : Complete Main<br>
Default : Yes<br>
Forced : No<br>
<br>
Audio #2<br>
ID : 3<br>
Format : AAC LC<br>
Format/Info : Advanced Audio Codec Low Complexity<br>
Codec ID : A_AAC-2<br>
Duration : 1 h 23 min<br>
Bit rate : 445 kb/s<br>
Channel(s) : 6 channels<br>
Channel layout : C L R Ls Rs LFE<br>
Sampling rate : 48.0 kHz<br>
Frame rate : 46.875 FPS (1024 SPF)<br>
Compression mode : Lossy<br>
Stream size : 266 MiB (22%)<br>
Language : English<br>
Default : Yes<br>
Forced : No<br>
<br>
Text<br>
ID : 4<br>
Format : UTF-8<br>
Codec ID : S_TEXT/UTF8<br>
Codec ID/Info : UTF-8 Plain Text<br>
Duration : 1 h 23 min<br>
Bit rate : 61 b/s<br>
Frame rate : 0.300 FPS<br>
Count of elements : 1504<br>
Stream size : 37.7 KiB (0%)<br>
Title : SDH<br>
Language : English<br>
Default : No<br>
Forced : No</div>
</div><br>
<b>Screenshots</b><br>
<img src="https://i.imgur.com/DwY01Fb.png" class="bbCodeImage LbImage" alt="[​IMG]" data-url="https://i.imgur.com/DwY01Fb.png" style=""><br>
<br>
<b>Download</b><br>
<div class="bbCodeBlock bbCodeVfcHH HiddenContent">
<div class="attribution type">Hidden Content:</div>
<blockquote>You must reply before you can see the hidden data contained here.</blockquote>
</div></div>
<div class="messageTextEndMarker">&nbsp;</div>
</blockquote>
</article>]]></description>
                <author><![CDATA[Samuel]]></author>
                </item>

                
                <item>
                <title><![CDATA[【Cinema Center】MOVIE - Pearl (2022) [Playdede WEB-DL 1080p][Castellano]]]></title>
                <link><![CDATA[https://sharemania.us/threads/pearl-2022-playdede-web-dl-1080p-castellano.234397/]]></link>
                <description><![CDATA[<article>
<blockquote class="messageText SelectQuoteContainer ugc baseHtml">
<div style="text-align: center"><img src="https://image.tmdb.org/t/p/w500/z5uIG81pXyHKg7cUFIu84Wjn4NS.jpg" class="bbCodeImage LbImage" alt="[​IMG]" data-url="https://image.tmdb.org/t/p/w500/z5uIG81pXyHKg7cUFIu84Wjn4NS.jpg" style=""> <br>
<br>
<div class="bbCodeBlock bbCodeVfcHH HiddenContent">
<div class="attribution type">Hidden Content:</div>
<blockquote>You must reply before you can see the hidden data contained here.</blockquote>
</div></div>
<div class="messageTextEndMarker">&nbsp;</div>
</blockquote>
</article>]]></description>
                <author><![CDATA[aove]]></author>
                </item>

                </channel></rss>